Coordinates
version=1
nRows=38
nColumns=12
inDegrees=yes

Units are S.I. units (second, meters, Newtons, ...)
Angles are in degrees

endheader
time	SC_y	SC_z	SC_x	AC_y	AC_z	AC_x	GH_y	GH_z	GH_yy	EL_x	PS_y
       0.0              -48.36          26.53          9.492          33.54          6.273          5.801         -55.48          76.93          2.614          64.99          109.7
   0.01915              -48.36          26.52          9.492          33.54          6.274          5.799         -55.46          76.93            2.6          64.98          109.7
    0.0383              -48.36          26.52          9.493          33.55          6.274          5.798         -55.43          76.93          2.585          64.97          109.8
   0.05745              -48.36          26.52          9.493          33.55          6.275          5.796          -55.4          76.93          2.569          64.96          109.8
    0.0766              -48.36          26.52          9.494          33.55          6.275          5.794         -55.37          76.92          2.552          64.96          109.8
   0.09575              -48.37          26.51          9.494          33.55          6.275          5.792         -55.34          76.92          2.535          64.95          109.8
    0.1149              -48.37          26.51          9.495          33.55          6.276           5.79         -55.31          76.92          2.515          64.94          109.8
     0.134              -48.37          26.51          9.496          33.55          6.276          5.788         -55.27          76.91          2.495          64.93          109.8
    0.1532              -48.37           26.5          9.496          33.56          6.277          5.786         -55.23          76.91          2.473          64.92          109.8
    0.1723              -48.37           26.5          9.497          33.56          6.278          5.783         -55.19          76.91           2.45           64.9          109.8
    0.1915              -48.37           26.5          9.498          33.56          6.278          5.781         -55.15           76.9          2.425          64.89          109.8
    0.2106              -48.37          26.49          9.499          33.56          6.279          5.778          -55.1           76.9          2.398          64.88          109.8
    0.2298              -48.37          26.49            9.5          33.57           6.28          5.775         -55.05          76.89          2.368          64.86          109.8
    0.2489              -48.38          26.48          9.501          33.57          6.281          5.771         -54.99          76.89          2.337          64.85          109.8
    0.2681              -48.38          26.48          9.502          33.57          6.281          5.768         -54.93          76.88          2.303          64.83          109.8
    0.2872              -48.38          26.47          9.503          33.58          6.282          5.764         -54.86          76.88          2.266          64.81          109.9
    0.3064              -48.38          26.47          9.504          33.58          6.283          5.759         -54.79          76.87          2.226          64.79          109.9
    0.3255              -48.38          26.46          9.506          33.58          6.285          5.755         -54.71          76.87          2.182          64.77          109.9
    0.3447              -48.39          26.45          9.507          33.59          6.286          5.749         -54.62          76.86          2.134          64.75          109.9
    0.3638              -48.39          26.44          9.509          33.59          6.287          5.744         -54.53          76.85          2.082          64.72          109.9
     0.383              -48.39          26.43          9.511           33.6          6.289          5.738         -54.43          76.84          2.024          64.69          109.9
    0.4021               -48.4          26.42          9.513           33.6           6.29          5.731         -54.31          76.83          1.961          64.66          110.0
    0.4213               -48.4          26.41          9.515          33.61          6.292          5.723         -54.19          76.82          1.891          64.62          110.0
    0.4404               -48.4           26.4          9.518          33.62          6.294          5.715         -54.05          76.81          1.813          64.59          110.0
    0.4596              -48.41          26.39          9.521          33.63          6.296          5.706          -53.9          76.79          1.727          64.54          110.0
    0.4787              -48.41          26.37          9.524          33.64          6.299          5.695         -53.72          76.78          1.631          64.49          110.1
    0.4979              -48.42          26.36          9.527          33.65          6.302          5.684         -53.53          76.76          1.524          64.44          110.1
     0.517              -48.43          26.34          9.531          33.66          6.305          5.671         -53.31          76.74          1.403          64.38          110.1
    0.5362              -48.43          26.32          9.536          33.67          6.308          5.656         -53.07          76.72          1.266          64.31          110.2
    0.5553              -48.44          26.29          9.541          33.68          6.312           5.64         -52.79           76.7          1.111          64.23          110.2
    0.5745              -48.45          26.26          9.547           33.7          6.317          5.621         -52.47          76.67         0.9333          64.14          110.3
    0.5936              -48.46          26.23          9.553          33.72          6.322          5.599         -52.11          76.64         0.7299          64.04          110.4
    0.6128              -48.48           26.2          9.561          33.74          6.329          5.574         -51.69           76.6          0.495          63.92          110.4
    0.6319              -48.49          26.15           9.57          33.77          6.336          5.544          -51.2          76.56         0.2221          63.79          110.5
    0.6511              -48.51           26.1           9.58           33.8          6.344           5.51         -50.63          76.51       -0.09724          63.63          110.6
    0.6702              -48.53          26.04          9.593          33.83          6.354           5.47         -49.95          76.45        -0.4737          63.44          110.7
    0.6894              -48.56          25.98          9.607          33.87          6.365          5.422         -49.15          76.38         -0.921          63.21          110.9
    0.7085              -48.58          25.89          9.625          33.92          6.379          5.364         -48.19           76.3         -1.457          62.94          111.1
